<?xml version="1.0" standalone="no"?><!DOCTYPE svg PUBLIC "-//W3C//DTD SVG 1.1//EN" "http://www.w3.org/Graphics/SVG/1.1/DTD/svg11.dtd"><svg t="1758680498577" class="icon" viewBox="0 0 1024 1024" version="1.1" xmlns="http://www.w3.org/2000/svg" p-id="12138" xmlns:xlink="http://www.w3.org/1999/xlink" width="24" height="24"><path d="M336 912h352l-64-144H400z" fill="#E7E7E7" p-id="12139"></path><path d="M160 912a64 64 0 0 0 64 64h576a64 64 0 0 0 64-64H160z" fill="#2BB0AF" p-id="12140"></path><path d="M912 48H112a64 64 0 0 0-64 64v544h928V112a64 64 0 0 0-64-64zM352 576H160V320h192v256z m256 0H416V320h192v256z m256 0H672V320h192v256z m0-320H160V128h704v128z" fill="#E7E7E7" p-id="12141"></path><path d="M48 704a64 64 0 0 0 64 64h800a64 64 0 0 0 64-64v-48H48v48z" fill="#2BB0AF" p-id="12142"></path><path d="M416 320h192v256H416zM160 320h192v256H160zM672 320h192v256H672zM160 128h704v128H160z" fill="#EFC95B" p-id="12143"></path><path d="M912 32H112C67.888 32 32 67.888 32 112v592c0 44.112 35.888 80 80 80h263.376l-49.776 112H160a16 16 0 0 0-16 16c0 44.112 35.888 80 80 80h576c44.112 0 80-35.888 80-80a16 16 0 0 0-16-16H698.4l-49.776-112H912c44.112 0 80-35.888 80-80V112c0-44.112-35.888-80-80-80zM112 64h800c26.464 0 48 21.536 48 48v528H64V112c0-26.464 21.536-48 48-48z m688 896H224a48.096 48.096 0 0 1-45.264-32h666.528A48.096 48.096 0 0 1 800 960z m-136.624-64H360.624l49.776-112h203.2l49.776 112zM912 752H112c-26.464 0-48-21.536-48-48v-32h896v32c0 26.464-21.536 48-48 48z" fill="#383838" p-id="12144"></path><path d="M608 304H416a16 16 0 0 0-16 16v256a16 16 0 0 0 16 16h192a16 16 0 0 0 16-16V320a16 16 0 0 0-16-16z m-16 256H432V336h160v224z" fill="#383838" p-id="12145"></path><path d="M464 368h96v32h-96zM464 432h96v32h-96zM464 496h96v32h-96zM160 592h192a16 16 0 0 0 16-16V320a16 16 0 0 0-16-16H160a16 16 0 0 0-16 16v256a16 16 0 0 0 16 16z m16-256h160v224H176V336z" fill="#383838" p-id="12146"></path><path d="M208 368h96v32h-96zM208 432h96v32h-96zM208 496h96v32h-96zM864 304H672a16 16 0 0 0-16 16v256a16 16 0 0 0 16 16h192a16 16 0 0 0 16-16V320a16 16 0 0 0-16-16z m-16 256H688V336h160v224z" fill="#383838" p-id="12147"></path><path d="M720 368h96v32h-96zM720 432h96v32h-96zM720 496h96v32h-96zM160 272h704a16 16 0 0 0 16-16V128a16 16 0 0 0-16-16H160a16 16 0 0 0-16 16v128a16 16 0 0 0 16 16z m441.44-80L848 147.168v89.664L601.44 192z m85.12 48H337.44L512 208.256 686.56 240zM512 175.744L337.44 144h349.12L512 175.744zM422.56 192L176 236.832V147.168L422.56 192z" fill="#383838" p-id="12148"></path></svg>