<?xml version="1.0" standalone="no"?><!DOCTYPE svg PUBLIC "-//W3C//DTD SVG 1.1//EN" "http://www.w3.org/Graphics/SVG/1.1/DTD/svg11.dtd"><svg t="1758606682847" class="icon" viewBox="0 0 1024 1024" version="1.1" xmlns="http://www.w3.org/2000/svg" p-id="21268" xmlns:xlink="http://www.w3.org/1999/xlink" width="24" height="24"><path d="M993.28 256L532.48 56.32c-15.36-5.12-25.6-5.12-40.96 0L30.72 256c-40.96 15.36-40.96 76.8 0 92.16l460.8 199.68c10.24 5.12 25.6 5.12 35.84 0l460.8-199.68c46.08-15.36 46.08-76.8 5.12-92.16z" fill="#707070" p-id="21269"></path><path d="M962.56 680.96L512 885.76 61.44 686.08c-20.48-10.24-46.08 0-56.32 20.48-10.24 20.48 0 46.08 20.48 56.32L496.64 972.8H512c5.12 0 10.24 0 15.36-5.12L998.4 757.76c20.48-10.24 30.72-35.84 20.48-56.32-10.24-20.48-35.84-25.6-56.32-20.48zM25.6 547.84l471.04 209.92c5.12 0 10.24 5.12 15.36 5.12 5.12 0 10.24 0 15.36-5.12L998.4 547.84c20.48-10.24 30.72-35.84 20.48-56.32-10.24-20.48-35.84-30.72-56.32-20.48L512 675.84 61.44 476.16c-20.48-10.24-46.08 0-56.32 20.48-10.24 20.48 0 46.08 20.48 51.2z" fill="#00d8a0" p-id="21270"></path></svg>